<svg width="14" height="14" viewBox="0 0 14 14" fill="none" xmlns="http://www.w3.org/2000/svg">
<path d="M0.333496 6.83332H13.6668V12.8333C13.6668 13.0101 13.5966 13.1797 13.4716 13.3047C13.3465 13.4298 13.177 13.5 13.0002 13.5H1.00016C0.823352 13.5 0.653782 13.4298 0.528758 13.3047C0.403734 13.1797 0.333496 13.0101 0.333496 12.8333V6.83332ZM10.3335 1.49999H13.0002C13.177 1.49999 13.3465 1.57023 13.4716 1.69525C13.5966 1.82028 13.6668 1.98985 13.6668 2.16666V5.49999H0.333496V2.16666C0.333496 1.98985 0.403734 1.82028 0.528758 1.69525C0.653782 1.57023 0.823352 1.49999 1.00016 1.49999H3.66683V0.166656H5.00016V1.49999H9.00016V0.166656H10.3335V1.49999Z" fill="white"/>
</svg>
