<svg width="21" height="18" viewBox="0 0 21 18" fill="none" xmlns="http://www.w3.org/2000/svg">
<path d="M20.9107 8V17C20.9107 17.2652 20.8056 17.5196 20.6185 17.7071C20.4314 17.8946 20.1776 18 19.9131 18H1.95541C1.69082 18 1.43706 17.8946 1.24997 17.7071C1.06287 17.5196 0.957764 17.2652 0.957764 17V8H20.9107ZM20.9107 4H0.957764V1C0.957764 0.734784 1.06287 0.48043 1.24997 0.292893C1.43706 0.105357 1.69082 0 1.95541 0H19.9131C20.1776 0 20.4314 0.105357 20.6185 0.292893C20.8056 0.48043 20.9107 0.734784 20.9107 1V4Z" fill="#C4C4C4"/>
</svg>
