<svg width="18" height="18" viewBox="0 0 18 18" fill="none" xmlns="http://www.w3.org/2000/svg">
<path d="M0.666748 9.16658H17.3334V16.6666C17.3334 16.8876 17.2456 17.0996 17.0893 17.2558C16.9331 17.4121 16.7211 17.4999 16.5001 17.4999H1.50008C1.27907 17.4999 1.06711 17.4121 0.910826 17.2558C0.754545 17.0996 0.666748 16.8876 0.666748 16.6666V9.16658ZM13.1667 2.49992H16.5001C16.7211 2.49992 16.9331 2.58772 17.0893 2.744C17.2456 2.90028 17.3334 3.11224 17.3334 3.33325V7.49992H0.666748V3.33325C0.666748 3.11224 0.754545 2.90028 0.910826 2.744C1.06711 2.58772 1.27907 2.49992 1.50008 2.49992H4.83342V0.833252H6.50008V2.49992H11.5001V0.833252H13.1667V2.49992Z" fill="#C4C4C4"/>
</svg>
