<svg width="18" height="16" viewBox="0 0 18 16" fill="none" xmlns="http://www.w3.org/2000/svg">
<path d="M7.05 10.0001H2.25C1.85218 10.0001 1.47065 9.84203 1.18934 9.56072C0.908036 9.27942 0.750001 8.89789 0.750001 8.50006V6.92206C0.749799 6.72604 0.788019 6.53188 0.862501 6.35056L3.1845 0.715061C3.24096 0.577626 3.33697 0.460057 3.46035 0.37727C3.58373 0.294483 3.72892 0.250208 3.8775 0.250061H16.5C16.6989 0.250061 16.8897 0.329079 17.0303 0.469731C17.171 0.610383 17.25 0.801149 17.25 1.00006V8.50006C17.25 8.69897 17.171 8.88974 17.0303 9.03039C16.8897 9.17104 16.6989 9.25006 16.5 9.25006H13.8885C13.7684 9.25003 13.6501 9.27883 13.5435 9.33404C13.4368 9.38924 13.345 9.46924 13.2758 9.56731L9.186 15.3618C9.1343 15.4351 9.05806 15.4874 8.9711 15.5093C8.88414 15.5311 8.79222 15.5211 8.712 15.4811L7.3515 14.8001C6.96862 14.6087 6.66275 14.2921 6.4847 13.9028C6.30665 13.5136 6.26715 13.0751 6.37275 12.6603L7.05 10.0001ZM12.75 8.05906V1.75006H4.38L2.25 6.92206V8.50006H7.05C7.27845 8.50009 7.50388 8.55231 7.70908 8.65272C7.91428 8.75313 8.09383 8.89908 8.23404 9.07945C8.37425 9.25981 8.47142 9.46982 8.51811 9.69344C8.56481 9.91707 8.55981 10.1484 8.5035 10.3698L7.82625 13.0308C7.80505 13.1138 7.81292 13.2016 7.84853 13.2795C7.88415 13.3574 7.94536 13.4208 8.022 13.4591L8.51775 13.7066L12.0502 8.70256C12.2377 8.43706 12.4778 8.21956 12.75 8.05906ZM14.25 7.75006H15.75V1.75006H14.25V7.75006Z" fill="#828282"/>
</svg>
